<svg xmlns="http://www.w3.org/2000/svg" width="19" height="44" viewBox="0 0 19 44"><defs><style>.cls-1{fill:#bababa;fill-rule:evenodd}</style></defs><path id="Forma_1" data-name="Forma 1" class="cls-1" d="M0 36.343L.09 9.69A9.675 9.675 0 0 1 9.6 0c6.257-.022 9.412 5.431 9.4 9.568l-.076 23.49-1.554.006.13-23.435a8.084 8.084 0 0 0-7.96-8.106 8.136 8.136 0 0 0-7.956 8.1L1.5 36.277A5.875 5.875 0 0 0 7.413 42.3a5.967 5.967 0 0 0 5.953-6.063l.134-22.753a3.937 3.937 0 0 0-3.87-3.941 3.99 3.99 0 0 0-3.892 3.964l-.065 19.769-1.554.005.06-19.764a5.53 5.53 0 0 1 5.452-5.551 5.459 5.459 0 0 1 5.419 5.518l-.072 22.809A7.676 7.676 0 0 1 7.412 44 7.6 7.6 0 0 1 0 36.343z"/></svg>