<svg xmlns="http://www.w3.org/2000/svg" width="19" height="44" viewBox="0 0 19 44">
  <metadata><?xpacket begin="﻿" id="W5M0MpCehiHzreSzNTczkc9d"?>
<x:xmpmeta xmlns:x="adobe:ns:meta/" x:xmptk="Adobe XMP Core 5.6-c138 79.159824, 2016/09/14-01:09:01        ">
   <rdf:RDF xmlns:rdf="http://www.w3.org/1999/02/22-rdf-syntax-ns#">
      <rdf:Description rdf:about=""/>
   </rdf:RDF>
</x:xmpmeta>
                                                                                                    
                                                                                                    
                                                                                                    
                                                                                                    
                                                                                                    
                                                                                                    
                                                                                                    
                                                                                                    
                                                                                                    
                                                                                                    
                                                                                                    
                                                                                                    
                                                                                                    
                                                                                                    
                                                                                                    
                                                                                                    
                                                                                                    
                                                                                                    
                                                                                                    
                                                                                                    
                           
<?xpacket end="w"?></metadata>
<defs>
    <style>
      .cls-1 {
        fill: #bababa;
        fill-rule: evenodd;
      }
    </style>
  </defs>
  <path id="Forma_1" data-name="Forma 1" class="cls-1" d="M0,36.343L0.09,9.69A9.675,9.675,0,0,1,9.6,0c6.257-.022,9.412,5.431,9.4,9.568L18.924,33.058l-1.554.006L17.5,9.629A8.084,8.084,0,0,0,9.54,1.523a8.136,8.136,0,0,0-7.956,8.1L1.5,36.277A5.875,5.875,0,0,0,7.413,42.3a5.967,5.967,0,0,0,5.953-6.063L13.5,13.484A3.937,3.937,0,0,0,9.63,9.543a3.99,3.99,0,0,0-3.892,3.964L5.673,33.276l-1.554.005,0.06-19.764A5.53,5.53,0,0,1,9.631,7.966a5.459,5.459,0,0,1,5.419,5.518L14.978,36.293A7.676,7.676,0,0,1,7.412,44,7.6,7.6,0,0,1,0,36.343Z"/>
</svg>
